<svg width="143" height="42" viewBox="0 0 143 42" fill="none" xmlns="http://www.w3.org/2000/svg">
<g clip-path="url(#clip0)">
<path d="M52.032 17.272C52.464 16.52 53.104 15.896 53.952 15.4C54.816 14.888 55.816 14.632 56.952 14.632C58.12 14.632 59.176 14.912 60.12 15.472C61.08 16.032 61.832 16.824 62.376 17.848C62.92 18.856 63.192 20.032 63.192 21.376C63.192 22.704 62.92 23.888 62.376 24.928C61.832 25.968 61.08 26.776 60.12 27.352C59.176 27.928 58.12 28.216 56.952 28.216C55.832 28.216 54.84 27.968 53.976 27.472C53.128 26.96 52.48 26.328 52.032 25.576V34.24H49.848V14.848H52.032V17.272ZM60.96 21.376C60.96 20.384 60.76 19.52 60.36 18.784C59.96 18.048 59.416 17.488 58.728 17.104C58.056 16.72 57.312 16.528 56.496 16.528C55.696 16.528 54.952 16.728 54.264 17.128C53.592 17.512 53.048 18.08 52.632 18.832C52.232 19.568 52.032 20.424 52.032 21.4C52.032 22.392 52.232 23.264 52.632 24.016C53.048 24.752 53.592 25.32 54.264 25.72C54.952 26.104 55.696 26.296 56.496 26.296C57.312 26.296 58.056 26.104 58.728 25.72C59.416 25.32 59.96 24.752 60.36 24.016C60.76 23.264 60.96 22.384 60.96 21.376ZM77.7308 14.848V28H75.5468V26.056C75.1308 26.728 74.5468 27.256 73.7948 27.64C73.0588 28.008 72.2428 28.192 71.3468 28.192C70.3228 28.192 69.4028 27.984 68.5868 27.568C67.7708 27.136 67.1228 26.496 66.6428 25.648C66.1788 24.8 65.9468 23.768 65.9468 22.552V14.848H68.1068V22.264C68.1068 23.56 68.4348 24.56 69.0908 25.264C69.7468 25.952 70.6428 26.296 71.7788 26.296C72.9468 26.296 73.8668 25.936 74.5388 25.216C75.2108 24.496 75.5468 23.448 75.5468 22.072V14.848H77.7308ZM83.6023 10.24V28H81.4183V10.24H83.6023ZM91.9806 28.216C90.9726 28.216 90.0686 28.048 89.2686 27.712C88.4686 27.36 87.8366 26.88 87.3726 26.272C86.9086 25.648 86.6526 24.936 86.6046 24.136H88.8606C88.9246 24.792 89.2286 25.328 89.7726 25.744C90.3326 26.16 91.0606 26.368 91.9566 26.368C92.7886 26.368 93.4446 26.184 93.9246 25.816C94.4046 25.448 94.6446 24.984 94.6446 24.424C94.6446 23.848 94.3886 23.424 93.8766 23.152C93.3646 22.864 92.5726 22.584 91.5006 22.312C90.5246 22.056 89.7246 21.8 89.1006 21.544C88.4926 21.272 87.9646 20.88 87.5166 20.368C87.0846 19.84 86.8686 19.152 86.8686 18.304C86.8686 17.632 87.0686 17.016 87.4686 16.456C87.8686 15.896 88.4366 15.456 89.1726 15.136C89.9086 14.8 90.7486 14.632 91.6926 14.632C93.1486 14.632 94.3246 15 95.2206 15.736C96.1166 16.472 96.5966 17.48 96.6606 18.76H94.4766C94.4286 18.072 94.1486 17.52 93.6366 17.104C93.1406 16.688 92.4686 16.48 91.6206 16.48C90.8366 16.48 90.2126 16.648 89.7486 16.984C89.2846 17.32 89.0526 17.76 89.0526 18.304C89.0526 18.736 89.1886 19.096 89.4606 19.384C89.7486 19.656 90.1006 19.88 90.5166 20.056C90.9486 20.216 91.5406 20.4 92.2926 20.608C93.2366 20.864 94.0046 21.12 94.5966 21.376C95.1886 21.616 95.6926 21.984 96.1086 22.48C96.5406 22.976 96.7646 23.624 96.7806 24.424C96.7806 25.144 96.5806 25.792 96.1806 26.368C95.7806 26.944 95.2126 27.4 94.4766 27.736C93.7566 28.056 92.9246 28.216 91.9806 28.216ZM99.0476 21.376C99.0476 20.032 99.3196 18.856 99.8636 17.848C100.408 16.824 101.152 16.032 102.096 15.472C103.056 14.912 104.12 14.632 105.288 14.632C106.44 14.632 107.44 14.88 108.288 15.376C109.136 15.872 109.768 16.496 110.184 17.248V14.848H112.392V28H110.184V25.552C109.752 26.32 109.104 26.96 108.24 27.472C107.392 27.968 106.4 28.216 105.264 28.216C104.096 28.216 103.04 27.928 102.096 27.352C101.152 26.776 100.408 25.968 99.8636 24.928C99.3196 23.888 99.0476 22.704 99.0476 21.376ZM110.184 21.4C110.184 20.408 109.984 19.544 109.584 18.808C109.184 18.072 108.64 17.512 107.952 17.128C107.28 16.728 106.536 16.528 105.72 16.528C104.904 16.528 104.16 16.72 103.488 17.104C102.816 17.488 102.28 18.048 101.88 18.784C101.48 19.52 101.28 20.384 101.28 21.376C101.28 22.384 101.48 23.264 101.88 24.016C102.28 24.752 102.816 25.32 103.488 25.72C104.16 26.104 104.904 26.296 105.72 26.296C106.536 26.296 107.28 26.104 107.952 25.72C108.64 25.32 109.184 24.752 109.584 24.016C109.984 23.264 110.184 22.392 110.184 21.4ZM118.746 16.648V24.4C118.746 25.04 118.882 25.496 119.154 25.768C119.426 26.024 119.898 26.152 120.57 26.152H122.178V28H120.21C118.994 28 118.082 27.72 117.474 27.16C116.866 26.6 116.562 25.68 116.562 24.4V16.648H114.858V14.848H116.562V11.536H118.746V14.848H122.178V16.648H118.746ZM125.953 12.712C125.537 12.712 125.185 12.568 124.897 12.28C124.609 11.992 124.465 11.64 124.465 11.224C124.465 10.808 124.609 10.456 124.897 10.168C125.185 9.88 125.537 9.736 125.953 9.736C126.353 9.736 126.689 9.88 126.961 10.168C127.249 10.456 127.393 10.808 127.393 11.224C127.393 11.64 127.249 11.992 126.961 12.28C126.689 12.568 126.353 12.712 125.953 12.712ZM127.009 14.848V28H124.825V14.848H127.009ZM136.467 28.216C135.235 28.216 134.115 27.936 133.107 27.376C132.115 26.816 131.331 26.024 130.755 25C130.195 23.96 129.915 22.76 129.915 21.4C129.915 20.056 130.203 18.872 130.779 17.848C131.371 16.808 132.171 16.016 133.179 15.472C134.187 14.912 135.315 14.632 136.563 14.632C137.811 14.632 138.939 14.912 139.947 15.472C140.955 16.016 141.747 16.8 142.323 17.824C142.915 18.848 143.211 20.04 143.211 21.4C143.211 22.76 142.907 23.96 142.299 25C141.707 26.024 140.899 26.816 139.875 27.376C138.851 27.936 137.715 28.216 136.467 28.216ZM136.467 26.296C137.251 26.296 137.987 26.112 138.675 25.744C139.363 25.376 139.915 24.824 140.331 24.088C140.763 23.352 140.979 22.456 140.979 21.4C140.979 20.344 140.771 19.448 140.355 18.712C139.939 17.976 139.395 17.432 138.723 17.08C138.051 16.712 137.323 16.528 136.539 16.528C135.739 16.528 135.003 16.712 134.331 17.08C133.675 17.432 133.147 17.976 132.747 18.712C132.347 19.448 132.147 20.344 132.147 21.4C132.147 22.472 132.339 23.376 132.723 24.112C133.123 24.848 133.651 25.4 134.307 25.768C134.963 26.12 135.683 26.296 136.467 26.296Z" fill="#313131"/>
<path d="M23.328 0.0540009H15.2566L10.4035 27.5612H18.4749L23.328 0.0540009Z" fill="#4FA2CD"/>
<path d="M31.4171 14.2035H23.3457L18.4831 41.7647H26.5545L31.4171 14.2035Z" fill="#4FA2CD"/>
<path d="M10.4754 13.9353H2.40402L4.132e-06 27.5612H8.07142L10.4754 13.9353Z" fill="#4FA2CD"/>
<path d="M45 0H36.9286L32.0659 27.5612H40.1374L45 0Z" fill="#4FA2CD"/>
</g>
<defs>
<clipPath id="clip0">
<path d="M0 0H143V42H0V0Z" fill="white"/>
</clipPath>
</defs>
</svg>
